<?xml version="1.0" standalone="no"?>
<!DOCTYPE svg PUBLIC "-//W3C//DTD SVG 20010904//EN"
 "http://www.w3.org/TR/2001/REC-SVG-20010904/DTD/svg10.dtd">
<svg version="1.0" xmlns="http://www.w3.org/2000/svg"
 width="1278.000000pt" height="642.000000pt" viewBox="0 0 1278.000000 642.000000"
 preserveAspectRatio="xMidYMid meet">
<metadata>
Created by potrace 1.16, written by Peter Selinger 2001-2019
</metadata>
<g transform="translate(0.000000,642.000000) scale(0.100000,-0.100000)"
fill="#000000" stroke="none">
<path d="M0 3220 l0 -3200 2787 0 2787 0 -116 118 c-64 64 -136 140 -160 167
-83 96 -216 280 -299 415 -85 140 -233 432 -227 450 2 6 23 -35 48 -92 151
-343 426 -734 699 -991 l71 -67 488 0 487 0 -71 39 c-237 129 -421 268 -619
466 -210 210 -343 389 -474 637 -166 313 -273 680 -298 1021 -7 105 6 95 -173
127 -153 28 -274 62 -342 96 l-51 26 6 -184 c11 -339 89 -707 222 -1043 5 -13
5 -17 -2 -10 -25 25 -118 312 -157 486 -41 185 -65 359 -76 559 -5 102 -12
200 -15 218 -4 18 -2 47 4 65 5 18 15 92 21 166 61 739 396 1449 938 1989 516
513 1173 824 1927 914 130 15 532 15 660 0 459 -55 847 -179 1237 -393 l78
-43 37 22 c247 147 521 241 663 227 208 -19 303 -177 272 -448 -14 -119 -56
-285 -107 -417 -19 -50 -32 -97 -28 -103 4 -7 35 -48 69 -92 531 -685 759
-1589 618 -2455 -97 -602 -349 -1140 -759 -1617 -5 -6 -64 -66 -130 -132
l-119 -121 1437 0 1437 0 0 3200 0 3200 -6385 0 -6385 0 0 -3200z"/>
<path d="M7610 5594 c-361 -16 -713 -90 -1045 -221 -755 -297 -1360 -860
-1711 -1588 -135 -282 -221 -549 -273 -855 -22 -129 -46 -368 -38 -376 2 -3
32 6 65 20 85 36 184 62 352 91 79 14 145 25 147 25 1 0 5 21 8 48 109 771
521 1434 1157 1861 330 221 693 360 1103 423 185 28 530 30 710 4 244 -35 493
-103 694 -189 111 -47 75 -60 299 109 88 67 188 138 222 159 47 29 58 40 50
50 -11 14 -322 173 -375 192 -16 6 -86 32 -155 58 -360 133 -824 205 -1210
189z"/>
<path d="M9934 5370 c-84 -15 -221 -67 -359 -135 -124 -62 -174 -91 -164 -98
2 -1 38 -25 79 -51 189 -123 366 -269 548 -454 78 -80 144 -143 146 -141 7 7
74 193 90 249 45 159 61 356 37 448 -19 68 -67 129 -126 157 -60 30 -165 40
-251 25z"/>
<path d="M9238 5035 c-270 -185 -366 -265 -316 -265 19 0 237 -128 337 -198
215 -149 413 -337 580 -550 52 -67 67 -80 77 -70 34 35 254 478 254 511 0 18
-257 281 -360 369 -145 123 -394 299 -423 298 -6 -1 -74 -43 -149 -95z"/>
<path d="M7567 5029 c-683 -46 -1334 -363 -1785 -869 -109 -123 -242 -301
-304 -410 -113 -197 -184 -357 -248 -558 -40 -123 -96 -376 -102 -457 -3 -46
-20 -44 167 -20 65 8 133 15 150 14 16 0 -32 -9 -109 -19 -76 -10 -156 -22
-176 -25 l-38 -6 -7 -72 c-3 -40 -5 -126 -3 -192 l3 -119 96 -13 c151 -20 453
-50 462 -46 4 2 7 75 7 161 0 328 64 608 205 897 299 617 871 1035 1560 1141
148 22 432 22 580 0 109 -17 274 -55 328 -75 16 -6 35 -8 42 -3 8 4 56 48 107
98 51 50 152 142 223 205 72 62 130 117 130 122 0 20 -296 129 -467 172 -145
37 -315 63 -483 75 -164 11 -167 11 -338 -1z"/>
<path d="M8754 4669 c-139 -118 -344 -308 -344 -319 0 -4 28 -17 63 -30 98
-35 313 -148 417 -218 251 -170 454 -385 616 -655 l41 -68 35 48 c58 79 211
312 267 406 l53 87 -81 103 c-222 283 -488 509 -809 688 -59 32 -114 59 -122
59 -9 0 -70 -45 -136 -101z"/>
<path d="M7475 4429 c-229 -30 -501 -117 -705 -227 -499 -268 -876 -745 -1013
-1283 -41 -161 -41 -157 -4 -162 l32 -4 -32 -1 c-37 -2 -38 -3 -53 -132 -12
-100 -13 -377 -2 -384 21 -13 533 -43 867 -51 143 -4 268 -9 278 -11 9 -3 17
-1 17 4 0 10 -125 94 -186 125 -29 15 -94 75 -94 87 0 3 32 4 71 2 46 -3 69 0
65 6 -3 5 1 12 9 16 8 3 15 1 15 -4 0 -6 12 -10 28 -9 15 0 22 3 15 5 -12 5
-7 34 6 34 3 0 12 -18 18 -39 8 -25 34 -60 70 -95 60 -58 68 -63 78 -46 3 6
13 10 22 10 11 0 9 -5 -8 -21 -13 -11 -18 -18 -11 -14 7 3 12 0 12 -8 0 -8 9
-22 20 -32 16 -14 25 -16 43 -8 24 11 50 6 42 -7 -3 -5 44 -9 104 -9 105 -1
109 0 104 20 -4 13 2 27 15 40 25 23 33 24 26 4 -4 -8 1 -17 10 -21 13 -5 13
-8 1 -20 -7 -8 -20 -14 -27 -14 -10 0 -10 2 1 9 13 9 8 31 -8 31 -7 0 -8 -28
-2 -50 0 -3 111 -7 246 -8 173 -3 245 -1 245 7 0 6 -4 11 -9 11 -4 0 -27 15
-50 32 -39 30 -43 38 -47 83 -2 28 -5 60 -8 72 -3 13 -1 25 5 28 5 4 9 12 9
18 0 7 -4 6 -10 -3 -8 -13 -10 -12 -10 3 0 10 7 25 15 33 13 14 15 13 16 -8 1
-22 2 -20 15 21 9 29 13 3 4 -30 l-9 -34 23 28 c21 26 24 27 49 14 15 -8 24
-17 20 -20 -3 -4 -2 -7 4 -7 6 0 14 7 17 16 3 8 10 12 16 9 6 -4 8 -12 4 -18
-3 -7 3 -1 15 13 19 23 21 24 33 8 9 -12 20 -16 36 -12 26 8 28 19 5 29 -28
11 34 35 73 29 18 -3 35 -1 38 5 4 5 13 8 21 4 8 -3 15 1 15 8 0 7 2 10 5 7
11 -10 -7 -37 -21 -31 -8 3 -21 0 -28 -6 -8 -7 -25 -9 -40 -5 -24 6 -26 4 -26
-25 0 -29 -2 -31 -26 -25 -19 5 -25 4 -20 -5 10 -15 59 -14 75 2 10 8 12 8 7
0 -5 -9 3 -10 28 -6 19 3 36 1 40 -6 5 -7 12 -7 26 1 14 9 22 9 34 -1 14 -12
16 -10 16 10 0 14 3 19 8 12 9 -14 152 -24 152 -10 0 6 9 2 20 -8 22 -20 22
-20 40 14 11 21 10 23 -4 18 -10 -4 -16 -1 -16 8 0 17 17 29 22 15 2 -6 9 -6
18 1 11 8 12 12 3 16 -7 2 -13 13 -13 23 0 10 -7 21 -16 24 -25 9 -27 7 -10
-10 16 -16 12 -39 -5 -29 -5 3 -6 -1 -3 -9 3 -9 1 -16 -5 -16 -6 0 -11 5 -11
10 0 6 -9 19 -20 30 -17 17 -23 18 -40 8 -16 -10 -24 -10 -40 -1 -10 7 -27 10
-37 7 -15 -5 -16 -4 -3 5 8 6 24 8 35 5 16 -5 17 -4 8 6 -16 18 -69 -1 -65
-24 2 -9 -1 -16 -5 -16 -5 0 -9 9 -10 20 -1 11 3 20 8 20 6 0 5 8 -1 20 -10
19 -9 20 17 15 23 -5 25 -4 11 5 -9 6 -15 17 -12 24 4 10 -9 15 -47 20 -37 5
-49 10 -41 18 14 14 65 14 70 -1 2 -6 10 -11 18 -11 8 0 14 -5 14 -11 0 -8 5
-7 15 1 9 7 14 19 11 27 -3 7 -1 13 4 13 6 0 10 -8 10 -18 0 -16 6 -18 50 -12
28 4 50 6 50 5 0 -9 -52 -55 -61 -55 -7 0 -4 7 7 15 18 14 18 14 -8 15 -15 0
-30 -5 -34 -12 -5 -7 -3 -8 6 -3 9 5 11 4 6 -3 -4 -7 -14 -12 -22 -12 -8 0
-14 -5 -14 -11 0 -6 7 -8 16 -5 8 3 12 2 9 -4 -4 -6 6 -10 22 -11 15 0 49 -1
76 -2 54 -3 58 -1 21 13 -14 6 -23 14 -20 19 4 5 0 12 -6 14 -8 3 -8 6 -2 6 6
1 23 -10 38 -24 15 -14 29 -25 32 -25 2 0 27 -17 54 -37 49 -37 55 -53 19 -53
-13 0 -19 7 -19 23 0 18 -2 19 -10 7 -7 -11 -4 -20 12 -33 18 -15 20 -20 7
-28 -10 -6 -10 -9 -1 -9 7 0 15 7 18 15 4 8 10 12 15 9 5 -3 7 -9 4 -14 -3 -5
3 -14 14 -19 25 -14 44 -14 36 -1 -3 6 3 10 15 10 38 0 35 -30 -18 -136 -44
-89 -49 -104 -33 -104 25 0 305 295 511 539 58 68 124 145 148 170 73 79 362
468 362 489 0 23 -84 159 -166 269 -79 106 -289 315 -397 395 -169 125 -452
275 -557 294 -19 4 -37 10 -40 14 -9 13 -241 68 -351 84 -117 18 -424 20 -544
5z m595 -1180 c0 -6 -7 -8 -17 -4 -15 5 -16 4 -5 -7 11 -11 16 -10 26 5 7 9
24 17 37 17 19 0 17 -3 -16 -20 -31 -16 -41 -17 -53 -7 -13 10 -15 9 -10 -10
5 -18 2 -23 -13 -23 -21 0 -26 -16 -6 -23 7 -3 4 -6 -6 -6 -10 -1 -16 -5 -12
-10 3 -5 1 -12 -5 -16 -6 -4 -7 -11 -4 -17 4 -7 9 -7 13 0 3 6 51 12 106 15
55 3 90 3 77 0 -26 -5 -20 -23 8 -23 13 0 17 -5 14 -14 -3 -8 -14 -13 -25 -11
-12 3 -19 -2 -20 -13 0 -10 -3 -12 -6 -4 -2 6 -13 12 -24 12 -11 0 -19 7 -19
16 0 12 6 15 26 10 19 -5 25 -3 22 6 -6 15 -121 12 -151 -4 -14 -7 -22 -5 -33
9 -7 10 -13 14 -14 8 0 -15 13 -31 30 -38 12 -4 11 -6 -3 -6 -10 -1 -20 6 -24
14 -5 14 -8 14 -25 -2 -11 -10 -24 -26 -29 -35 -8 -15 -6 -16 13 -9 16 6 26 4
33 -6 13 -17 46 -7 39 12 -4 10 1 12 15 8 32 -8 33 -19 3 -32 -15 -7 -39 -19
-55 -27 -15 -7 -34 -11 -42 -8 -10 4 -15 0 -15 -11 0 -9 4 -14 9 -11 5 3 11
-12 15 -34 4 -23 15 -46 29 -56 15 -11 16 -15 5 -11 -10 4 -18 2 -18 -3 0 -6
9 -10 20 -10 11 0 20 -4 20 -10 0 -5 -8 -7 -17 -4 -14 5 -15 4 -4 -4 7 -5 22
-7 33 -4 13 3 16 7 8 12 -8 5 1 12 25 20 27 9 34 15 24 21 -10 6 -4 9 19 9 25
0 32 4 32 19 0 10 6 24 14 30 12 10 17 8 26 -8 6 -12 17 -21 25 -21 8 0 18 -7
23 -16 8 -14 14 -15 44 -4 43 16 78 2 56 -21 -14 -16 -38 -56 -38 -64 0 -17
19 0 30 25 7 17 16 30 21 30 4 0 13 18 19 40 11 40 23 50 35 29 4 -6 -1 -17
-11 -24 -11 -8 -14 -15 -9 -15 6 0 4 -4 -4 -9 -12 -8 -13 -12 -1 -25 11 -14
15 -15 29 -3 9 8 22 12 29 10 6 -3 12 0 12 6 0 6 5 11 11 11 5 0 8 -4 4 -9 -3
-6 10 -17 30 -27 40 -18 46 -29 13 -19 -13 4 -32 9 -43 12 l-20 5 20 -15 c19
-15 18 -16 -15 -15 -19 0 -40 5 -47 10 -7 5 -16 7 -22 4 -5 -4 -12 2 -14 11
-4 16 -5 16 -6 1 0 -9 9 -24 21 -32 l22 -16 -26 0 c-14 0 -41 -6 -59 -14 l-34
-14 28 -11 c16 -6 47 -11 70 -12 35 -1 38 -2 17 -9 -15 -4 10 -7 65 -7 67 0
102 -5 133 -18 23 -10 42 -22 42 -27 0 -11 -18 -10 -25 2 -9 15 -25 12 -32 -6
-3 -9 0 -20 8 -25 11 -7 9 -9 -8 -9 -12 0 -23 -6 -26 -12 -2 -7 -8 -9 -13 -5
-5 4 -4 11 1 15 12 8 16 62 6 62 -4 0 -12 -5 -18 -11 -9 -9 -11 -7 -7 7 5 19
-12 21 -100 15 -4 -1 -5 -8 -2 -16 6 -17 1 -20 -59 -30 -33 -6 -37 -9 -20 -15
18 -8 18 -9 2 -9 -10 -1 -16 -5 -12 -10 8 -13 -10 -22 -29 -15 -11 4 -13 10
-7 18 5 6 9 16 8 21 -1 6 8 11 21 13 12 2 22 7 22 12 0 10 -27 3 -47 -12 -7
-6 -13 -3 -16 9 -4 17 -4 17 -12 -1 -5 -12 -3 -21 6 -27 9 -6 3 -8 -18 -5 -18
2 -30 -1 -27 -5 3 -5 -1 -9 -9 -9 -7 0 -14 7 -14 15 0 9 10 15 24 15 15 0 23
6 23 18 0 14 -2 15 -10 2 -5 -8 -10 -10 -10 -5 0 6 5 17 10 25 8 12 10 12 10
1 0 -11 4 -11 18 2 10 10 22 14 25 11 4 -4 1 5 -6 19 -6 14 -15 23 -20 20 -4
-3 -3 -11 4 -19 10 -12 9 -13 -4 -8 -9 3 -15 14 -14 24 1 10 4 17 9 14 4 -2
12 4 18 15 7 14 7 22 -1 26 -14 9 -50 -25 -42 -38 6 -10 -44 18 -97 54 -14 9
-41 20 -60 23 -23 5 -30 4 -22 -2 11 -7 7 -12 -15 -20 -15 -5 -36 -13 -46 -17
-13 -5 -18 -4 -17 6 5 30 -1 37 -22 32 -21 -4 -21 -3 -5 7 12 8 15 15 8 23 -5
7 -11 26 -13 42 -2 19 -8 29 -17 27 -13 -3 -12 11 4 51 4 10 3 17 -5 17 -6 0
-8 -5 -4 -12 4 -7 3 -8 -4 -4 -8 5 -10 1 -5 -10 4 -11 3 -15 -4 -11 -7 5 -10
-1 -7 -15 l5 -23 -12 22 c-10 19 -4 31 47 100 31 43 64 84 73 91 8 6 11 12 5
12 -5 1 2 10 15 20 13 11 20 20 16 20 -5 0 0 9 10 20 20 22 45 27 45 9z m194
-34 c24 -30 47 -33 128 -20 25 5 44 3 54 -5 8 -7 17 -10 21 -6 3 3 1 6 -6 6
-7 0 -9 5 -6 10 3 6 11 10 16 10 6 0 8 -4 4 -9 -3 -5 -1 -12 4 -15 5 -4 12 2
14 11 3 13 5 12 6 -6 1 -17 -3 -22 -14 -17 -9 3 -19 -3 -25 -15 -12 -21 -4
-43 11 -33 6 3 10 0 8 -7 -4 -31 3 -39 34 -40 23 -1 26 -3 10 -6 -13 -2 -23
-9 -23 -16 0 -13 -65 73 -65 88 -1 5 3 13 8 16 5 4 5 9 0 12 -5 3 -15 1 -23
-4 -11 -7 -12 -12 -3 -15 8 -4 9 -14 3 -34 -11 -40 -20 -51 -31 -44 -6 3 -2
12 8 19 22 16 18 21 -26 30 -24 5 -31 4 -27 -4 4 -6 1 -14 -8 -17 -9 -3 -12
-12 -9 -22 4 -9 -3 -6 -14 8 -15 17 -18 29 -12 37 7 8 4 15 -8 22 -10 6 -14
11 -9 11 5 0 3 7 -4 15 -7 8 -17 12 -23 8 -6 -3 -7 -1 -3 5 4 8 -3 16 -19 22
-14 5 -23 14 -20 20 8 13 -1 13 -25 0 -13 -7 -21 -6 -30 5 -10 13 -5 14 35 11
37 -3 52 -9 69 -31z"/>
<path d="M10152 4321 c-24 -54 -81 -169 -128 -255 -46 -86 -84 -163 -84 -170
0 -7 12 -31 26 -52 50 -72 129 -218 187 -340 101 -216 164 -434 225 -779 l7
-40 95 -18 c227 -42 361 -83 423 -127 l27 -21 0 34 c0 103 -41 403 -76 556
-77 334 -218 677 -401 973 -92 149 -230 337 -248 337 -5 0 -29 -44 -53 -98z"/>
<path d="M9870 3793 c-29 -49 -108 -172 -177 -275 l-124 -187 29 -58 c78 -155
154 -411 178 -603 8 -63 14 -185 14 -272 l0 -158 38 0 c36 0 288 28 466 51
l88 12 -4 179 c-2 137 -6 181 -17 187 -13 8 -137 26 -376 55 -60 8 -96 14 -80
15 25 1 157 -14 412 -45 l52 -7 -5 39 c-41 305 -140 621 -271 874 -51 97 -160
280 -168 280 -2 0 -27 -39 -55 -87z"/>
<path d="M9500 3238 c-121 -167 -356 -464 -507 -641 -90 -105 -163 -195 -163
-199 0 -4 17 -8 37 -8 l37 0 -29 -30 c-26 -27 -65 -41 -65 -22 0 4 -4 13 -9
20 -6 11 -20 1 -57 -38 -27 -29 -48 -58 -46 -64 2 -6 0 -8 -4 -3 -8 7 -84 -60
-84 -75 0 -4 15 -6 33 -4 17 3 92 5 166 6 241 3 944 44 964 57 10 6 9 272 -3
378 -15 138 -13 133 -68 138 l-47 3 48 2 c54 2 52 -13 16 137 -35 147 -138
415 -159 415 -4 0 -31 -33 -60 -72z"/>
<path d="M5070 2672 c-187 -26 -408 -83 -481 -123 -38 -21 -44 -29 -47 -61 -3
-33 1 -40 30 -58 61 -37 355 -112 481 -122 l38 -3 5 155 c2 85 7 167 10 182 6
30 -1 36 -36 30z"/>
<path d="M10385 2660 c-3 -5 -4 -14 -1 -18 2 -4 7 -79 10 -166 3 -88 8 -161
10 -163 6 -6 177 25 282 52 133 34 221 76 230 109 4 15 1 32 -6 41 -32 38
-198 94 -390 130 -47 9 -95 18 -107 21 -12 2 -25 0 -28 -6z"/>
<path d="M10914 2439 c-20 -33 -195 -92 -384 -129 -58 -11 -112 -23 -121 -25
-13 -4 -17 -26 -22 -104 -33 -490 -244 -1026 -565 -1430 -89 -112 -305 -331
-412 -417 -147 -118 -461 -317 -476 -301 -3 2 33 25 80 51 363 196 696 503
931 857 239 360 397 818 430 1247 9 107 21 99 -123 78 -53 -8 -171 -22 -262
-31 -91 -9 -174 -20 -186 -25 -17 -7 -22 -20 -28 -77 -4 -37 -18 -119 -32
-181 -194 -869 -916 -1510 -1803 -1603 -140 -14 -410 -7 -536 16 -581 102
-1073 421 -1384 895 -54 83 -68 107 -126 215 -91 173 -181 466 -201 658 -4 37
-11 70 -15 73 -5 3 -71 11 -146 19 -76 8 -200 22 -275 32 -76 9 -140 14 -144
10 -10 -10 14 -237 41 -374 68 -349 216 -705 413 -988 248 -358 600 -669 959
-849 l73 -36 1641 0 1641 0 113 114 c496 502 801 1109 905 1801 20 133 40 515
27 515 -3 0 -9 -5 -13 -11z"/>
<path d="M5704 2149 c19 -189 91 -436 182 -629 442 -932 1515 -1391 2489
-1065 316 106 576 265 805 495 250 251 425 546 520 880 32 110 70 303 70 353
l0 30 -57 -7 c-152 -16 -897 -63 -1048 -65 l-100 -2 -62 -62 c-35 -34 -63 -67
-63 -75 0 -7 -4 -11 -10 -7 -9 5 -19 -24 -38 -110 -7 -31 -11 -36 -17 -22 -4
9 -11 17 -16 17 -5 0 -2 -11 7 -24 13 -21 14 -33 4 -80 -6 -31 -16 -58 -21
-62 -5 -3 -7 -10 -3 -15 3 -5 0 -26 -7 -47 -10 -31 -13 -34 -19 -17 -6 18 -8
18 -20 -5 -7 -14 -12 -26 -11 -28 1 -1 -11 -13 -26 -25 -61 -49 -55 -49 -98
-5 -22 23 -34 38 -27 34 7 -4 12 -2 12 5 0 7 7 21 17 31 10 11 12 18 4 18 -6
0 -14 -7 -18 -16 -3 -8 -12 -13 -20 -10 -8 3 -11 2 -8 -3 8 -15 -15 -25 -28
-12 -8 8 -8 11 2 11 7 0 10 4 7 9 -4 5 -1 11 5 13 6 2 3 10 -8 20 -17 15 -22
13 -72 -24 -29 -22 -61 -53 -70 -69 -9 -16 -21 -27 -28 -24 -7 2 -15 -1 -19
-7 -4 -7 -3 -8 4 -4 7 4 12 2 12 -3 0 -6 -11 -11 -24 -11 -14 0 -54 -23 -94
-54 -210 -162 -530 -348 -722 -419 -281 -104 -482 -77 -561 75 -28 54 -23 61
6 9 30 -51 54 -75 110 -104 34 -18 57 -22 145 -21 107 0 138 6 270 57 181 69
367 176 610 349 72 51 270 209 312 248 l37 35 6 147 6 146 -45 31 -46 32 -30
-23 c-17 -12 -26 -24 -21 -26 17 -6 13 -22 -5 -22 -8 0 -12 5 -9 10 3 6 1 10
-4 10 -6 0 -11 -8 -11 -17 -1 -17 -1 -17 -10 -1 -11 18 -3 48 12 48 5 0 6 -4
3 -10 -3 -5 -1 -10 4 -10 6 0 11 5 11 10 0 6 6 10 14 10 7 0 19 6 25 14 10 12
5 20 -30 43 l-42 28 -311 1 c-199 1 -297 -2 -272 -7 21 -5 55 -22 75 -38 48
-37 77 -52 86 -43 5 4 5 2 1 -5 -10 -19 11 -25 28 -7 9 8 16 11 16 5 0 -5 -5
-13 -11 -17 -8 -4 6 -22 37 -50 l49 -42 -34 -49 c-19 -26 -81 -116 -137 -200
-57 -84 -106 -148 -109 -144 -3 5 -14 7 -25 4 -11 -3 -28 1 -38 8 -15 12 -16
12 -5 -2 7 -9 10 -19 6 -22 -3 -4 1 -7 10 -7 10 0 15 -8 14 -21 -1 -18 -3 -18
-13 -4 -10 14 -12 14 -17 1 -4 -9 -2 -18 4 -22 7 -4 5 -12 -5 -23 -9 -10 -13
-21 -9 -24 3 -4 -1 -7 -10 -7 -21 0 -22 16 -3 23 23 9 9 78 -20 100 -13 10
-24 27 -24 38 0 26 -14 24 -33 -4 -13 -20 -13 -24 1 -37 14 -13 15 -12 9 3 -4
11 -2 17 7 17 15 0 16 -16 2 -40 -5 -8 -5 -12 -1 -7 5 4 17 0 27 -9 14 -13 15
-20 7 -31 -6 -7 -8 -13 -4 -13 4 0 2 -7 -5 -15 -7 -8 -18 -15 -24 -15 -6 0 -4
5 4 10 9 6 10 10 3 10 -6 0 -18 3 -26 6 -10 3 -17 -2 -20 -13 -4 -15 -5 -14
-6 4 0 12 5 24 12 26 7 4 6 6 -4 6 -11 1 -17 9 -16 24 0 12 -3 36 -6 52 -4 17
-9 77 -12 135 l-5 105 -48 43 c-26 23 -59 50 -74 59 -26 16 -27 19 -21 77 4
34 6 74 5 90 -1 16 3 35 9 43 6 7 9 20 5 29 -5 12 -20 15 -83 13 -43 -2 -81
-8 -85 -14 -5 -7 -8 -6 -8 2 0 12 -53 18 -250 28 -195 10 -705 45 -749 51
l-44 7 7 -64z"/>
</g>
</svg>
